<svg width="784" height="200" viewBox="0 0 784 200" fill="none" xmlns="http://www.w3.org/2000/svg">
<path d="M100.462 95.2436C100.462 96.5733 100.229 97.808 99.7616 98.9478C99.2946 100.088 98.6407 101.085 97.8 101.94C97.006 102.747 96.0486 103.388 94.9277 103.863C93.8067 104.338 92.5924 104.575 91.2847 104.575H25.5709C23.8895 104.575 22.0681 104.385 20.1065 104.005C18.1916 103.578 16.2767 102.937 14.3618 102.082C12.4936 101.227 10.6954 100.135 8.96734 98.8053C7.23926 97.4281 5.698 95.7897 4.34355 93.8901C3.03582 91.943 1.98496 89.711 1.19097 87.194C0.396991 84.6296 0 81.7564 0 78.5746V28.4254C0 26.7157 0.18682 24.8874 0.560459 22.9403C0.980802 20.9457 1.61132 18.9986 2.45201 17.099C3.29269 15.152 4.39026 13.2999 5.7447 11.5427C7.09914 9.78562 8.71046 8.2422 10.5787 6.91248C12.4936 5.53528 14.6887 4.44301 17.164 3.63569C19.6394 2.82836 22.4417 2.42469 25.5709 2.42469H99.6215V20.9457H25.5709C23.189 20.9457 21.3675 21.5868 20.1065 22.8691C18.8454 24.1513 18.2149 26.0509 18.2149 28.5678V78.5746C18.2149 80.9491 18.8454 82.8012 20.1065 84.1309C21.4142 85.4132 23.2357 86.0543 25.5709 86.0543H82.2473V62.8317H33.7676V44.1682H91.2847C92.5924 44.1682 93.8067 44.4294 94.9277 44.9518C96.0486 45.4267 97.006 46.0916 97.8 46.9464C98.6407 47.8012 99.2946 48.7985 99.7616 49.9383C100.229 51.0305 100.462 52.2178 100.462 53.5V95.2436Z" fill="#4B4B4B"/>
<path d="M137.803 104.575H119.588V2.42469H137.803V104.575Z" fill="#4B4B4B"/>
<path d="M264.536 63.2592C264.536 69.4803 263.486 75.2028 261.384 80.4267C259.282 85.6506 256.363 90.1621 252.627 93.9613C248.89 97.7605 244.453 100.729 239.316 102.866C234.225 104.955 228.667 106 222.642 106H197.982C191.957 106 186.376 104.955 181.238 102.866C176.101 100.729 171.664 97.7605 167.927 93.9613C164.191 90.1621 161.249 85.6506 159.1 80.4267C156.998 75.2028 155.948 69.4803 155.948 63.2592V43.7408C155.948 37.5672 156.998 31.8684 159.1 26.6445C161.249 21.3731 164.191 16.8616 167.927 13.1099C171.664 9.31072 176.101 6.3426 181.238 4.20556C186.376 2.06852 191.957 1 197.982 1H222.642C228.667 1 234.225 2.06852 239.316 4.20556C244.453 6.3426 248.89 9.31072 252.627 13.1099C256.363 16.8616 259.282 21.3731 261.384 26.6445C263.486 31.8684 264.536 37.5672 264.536 43.7408V63.2592ZM246.322 43.7408C246.322 40.0841 245.738 36.7836 244.57 33.8392C243.449 30.8474 241.838 28.3066 239.736 26.2171C237.681 24.0801 235.182 22.4417 232.24 21.3019C229.344 20.1147 226.145 19.521 222.642 19.521H197.982C194.432 19.521 191.186 20.1147 188.244 21.3019C185.348 22.4417 182.85 24.0801 180.748 26.2171C178.646 28.3066 177.011 30.8474 175.844 33.8392C174.723 36.7836 174.162 40.0841 174.162 43.7408V63.2592C174.162 66.9159 174.723 70.2402 175.844 73.232C177.011 76.1764 178.646 78.7171 180.748 80.8541C182.85 82.9437 185.348 84.5821 188.244 85.7693C191.186 86.9091 194.432 87.479 197.982 87.479H222.502C226.052 87.479 229.274 86.9091 232.17 85.7693C235.112 84.5821 237.634 82.9437 239.736 80.8541C241.838 78.7171 243.449 76.1764 244.57 73.232C245.738 70.2402 246.322 66.9159 246.322 63.2592V43.7408Z" fill="#4B4B4B"/>
<path d="M380.972 2.42469L333.403 100.942C332.655 102.462 331.535 103.673 330.04 104.575C328.592 105.525 326.981 106 325.206 106C323.478 106 321.867 105.525 320.372 104.575C318.924 103.673 317.803 102.462 317.009 100.942L269.511 2.42469H289.897L325.206 76.0102L360.655 2.42469H380.972Z" fill="#4B4B4B"/>
<path d="M487.179 104.575H468.964V79.5007H404.931V104.575H386.716V53.5C386.716 46.0441 387.977 39.1818 390.499 32.9132C393.022 26.6445 396.524 21.2544 401.008 16.7429C405.492 12.2313 410.793 8.7171 416.911 6.20014C423.029 3.68318 429.708 2.42469 436.947 2.42469H478.001C479.262 2.42469 480.453 2.66214 481.574 3.13704C482.695 3.61194 483.676 4.2768 484.516 5.13161C485.357 5.98643 486.011 6.98372 486.478 8.12347C486.945 9.26323 487.179 10.4742 487.179 11.7564V104.575ZM404.931 60.9796H468.964V20.9457H436.947C436.387 20.9457 435.196 21.0407 433.375 21.2307C431.6 21.3731 429.521 21.7768 427.139 22.4417C424.804 23.1065 422.329 24.1275 419.713 25.5047C417.098 26.882 414.693 28.7815 412.497 31.2035C410.302 33.6255 408.481 36.6649 407.033 40.3216C405.632 43.9308 404.931 48.3236 404.931 53.5V60.9796Z" fill="#4B4B4B"/>
<path d="M608.798 96.6682C608.798 97.998 608.541 99.2327 608.027 100.372C607.56 101.512 606.907 102.509 606.066 103.364C605.272 104.172 604.314 104.813 603.194 105.288C602.073 105.763 600.882 106 599.621 106C598.5 106 597.355 105.786 596.188 105.359C595.067 104.931 594.063 104.243 593.175 103.293L526.621 32.6282V104.575H508.406V10.3318C508.406 8.43216 508.92 6.72252 509.947 5.20285C511.021 3.63569 512.376 2.47218 514.011 1.71235C515.739 1 517.513 0.833786 519.335 1.2137C521.156 1.54613 522.721 2.40095 524.029 3.77815L590.583 74.3718V2.42469H608.798V96.6682Z" fill="#4B4B4B"/>
<path d="M730.418 96.6682C730.418 97.998 730.161 99.2327 729.647 100.372C729.18 101.512 728.526 102.509 727.685 103.364C726.891 104.172 725.934 104.813 724.813 105.288C723.692 105.763 722.501 106 721.24 106C720.119 106 718.975 105.786 717.807 105.359C716.686 104.931 715.682 104.243 714.795 103.293L648.24 32.6282V104.575H630.025V10.3318C630.025 8.43216 630.539 6.72252 631.567 5.20285C632.641 3.63569 633.995 2.47218 635.63 1.71235C637.358 1 639.133 0.833786 640.954 1.2137C642.776 1.54613 644.341 2.40095 645.648 3.77815L712.203 74.3718V2.42469H730.418V96.6682Z" fill="#4B4B4B"/>
<path d="M770 104.575H751.785V2.42469H770V104.575Z" fill="#4B4B4B"/>
<g opacity="0.75">
<mask id="path-2-outside-1_319_54" maskUnits="userSpaceOnUse" x="8" y="0" width="776" height="108" fill="black">
<rect fill="white" x="8" width="776" height="108"/>
<path d="M111.462 94.5509C111.462 95.8426 111.229 97.0421 110.762 98.1493C110.295 99.2564 109.641 100.225 108.8 101.056C108.006 101.84 107.049 102.463 105.928 102.924C104.807 103.385 103.592 103.616 102.285 103.616H36.5709C34.8895 103.616 33.0681 103.431 31.1065 103.062C29.1916 102.647 27.2766 102.024 25.3617 101.194C23.4936 100.364 21.6954 99.3026 19.9673 98.0109C18.2393 96.673 16.698 95.0814 15.3436 93.2361C14.0358 91.3446 12.985 89.1764 12.191 86.7313C11.397 84.2402 11 81.4491 11 78.3582V29.6418C11 27.981 11.1868 26.2049 11.5605 24.3134C11.9808 22.3758 12.6113 20.4844 13.452 18.6391C14.2927 16.7476 15.3903 14.9484 16.7447 13.2415C18.0991 11.5346 19.7105 10.0353 21.5787 8.74356C23.4936 7.4057 25.6887 6.34464 28.164 5.56038C30.6394 4.77612 33.4417 4.38399 36.5709 4.38399H110.622V22.3758H36.5709C34.189 22.3758 32.3675 22.9986 31.1065 24.2442C29.8454 25.4898 29.2149 27.3351 29.2149 29.7802V78.3582C29.2149 80.6649 29.8454 82.464 31.1065 83.7558C32.4142 85.0014 34.2357 85.6242 36.5709 85.6242H93.2473V63.0651H44.7676V44.9349H102.285C103.592 44.9349 104.807 45.1886 105.928 45.6961C107.049 46.1574 108.006 46.8033 108.8 47.6336C109.641 48.464 110.295 49.4328 110.762 50.54C111.229 51.6011 111.462 52.7544 111.462 54V94.5509Z"/>
<path d="M148.803 103.616H130.588V4.38399H148.803V103.616Z"/>
<path d="M275.536 63.4803C275.536 69.5237 274.486 75.0828 272.384 80.1574C270.282 85.232 267.363 89.6147 263.627 93.3053C259.89 96.9959 255.453 99.8792 250.316 101.955C245.225 103.985 239.667 105 233.642 105H208.982C202.957 105 197.376 103.985 192.238 101.955C187.101 99.8792 182.664 96.9959 178.927 93.3053C175.191 89.6147 172.249 85.232 170.1 80.1574C167.998 75.0828 166.948 69.5237 166.948 63.4803V44.5197C166.948 38.5224 167.998 32.9864 170.1 27.9118C172.249 22.791 175.191 18.4084 178.927 14.7639C182.664 11.0733 187.101 8.18996 192.238 6.11398C197.376 4.03799 202.957 3 208.982 3H233.642C239.667 3 245.225 4.03799 250.316 6.11398C255.453 8.18996 259.89 11.0733 263.627 14.7639C267.363 18.4084 270.282 22.791 272.384 27.9118C274.486 32.9864 275.536 38.5224 275.536 44.5197V63.4803ZM257.322 44.5197C257.322 40.9674 256.738 37.7612 255.57 34.9009C254.449 31.9946 252.838 29.5265 250.736 27.4966C248.681 25.4206 246.182 23.829 243.24 22.7218C240.344 21.5685 237.145 20.9919 233.642 20.9919H208.982C205.432 20.9919 202.186 21.5685 199.244 22.7218C196.348 23.829 193.85 25.4206 191.748 27.4966C189.646 29.5265 188.011 31.9946 186.844 34.9009C185.723 37.7612 185.162 40.9674 185.162 44.5197V63.4803C185.162 67.0326 185.723 70.2619 186.844 73.1683C188.011 76.0285 189.646 78.4966 191.748 80.5726C193.85 82.6024 196.348 84.194 199.244 85.3474C202.186 86.4545 205.432 87.0081 208.982 87.0081H233.502C237.052 87.0081 240.274 86.4545 243.17 85.3474C246.112 84.194 248.634 82.6024 250.736 80.5726C252.838 78.4966 254.449 76.0285 255.57 73.1683C256.738 70.2619 257.322 67.0326 257.322 63.4803V44.5197Z"/>
<path d="M391.972 4.38399L344.403 100.087C343.655 101.563 342.535 102.739 341.04 103.616C339.592 104.539 337.981 105 336.206 105C334.478 105 332.867 104.539 331.372 103.616C329.924 102.739 328.803 101.563 328.009 100.087L280.51 4.38399H300.897L336.206 75.867L371.655 4.38399H391.972Z"/>
<path d="M498.179 103.616H479.964V79.2578H415.931V103.616H397.716V54C397.716 46.7571 398.977 40.0909 401.499 34.0014C404.022 27.9118 407.524 22.6757 412.008 18.2931C416.492 13.9104 421.793 10.4966 427.911 8.05156C434.029 5.60651 440.708 4.38399 447.947 4.38399H489.001C490.262 4.38399 491.453 4.61465 492.574 5.07598C493.695 5.53731 494.676 6.18318 495.516 7.01357C496.357 7.84396 497.011 8.81275 497.478 9.91995C497.945 11.0271 498.179 12.2035 498.179 13.4491V103.616ZM415.931 61.2659H479.964V22.3758H447.947C447.387 22.3758 446.196 22.4681 444.375 22.6526C442.6 22.791 440.521 23.1832 438.139 23.829C435.804 24.4749 433.329 25.4668 430.713 26.8046C428.098 28.1425 425.693 29.9878 423.497 32.3406C421.302 34.6934 419.481 37.6459 418.033 41.1981C416.632 44.7042 415.931 48.9715 415.931 54V61.2659Z"/>
<path d="M619.798 95.9349C619.798 97.2266 619.541 98.426 619.027 99.5332C618.56 100.64 617.907 101.609 617.066 102.44C616.272 103.224 615.314 103.847 614.193 104.308C613.073 104.769 611.882 105 610.621 105C609.5 105 608.355 104.792 607.188 104.377C606.067 103.962 605.063 103.293 604.175 102.37L537.621 33.7246V103.616H519.406V12.0651C519.406 10.2198 519.92 8.55902 520.947 7.08277C522.021 5.56038 523.376 4.43012 525.011 3.69199C526.739 3 528.513 2.83853 530.335 3.2076C532.156 3.53053 533.721 4.36092 535.029 5.69878L601.583 74.2754V4.38399H619.798V95.9349Z"/>
<path d="M741.418 95.9349C741.418 97.2266 741.161 98.426 740.647 99.5332C740.18 100.64 739.526 101.609 738.685 102.44C737.891 103.224 736.934 103.847 735.813 104.308C734.692 104.769 733.501 105 732.24 105C731.119 105 729.975 104.792 728.807 104.377C727.686 103.962 726.682 103.293 725.795 102.37L659.24 33.7246V103.616H641.025V12.0651C641.025 10.2198 641.539 8.55902 642.567 7.08277C643.641 5.56038 644.995 4.43012 646.63 3.69199C648.358 3 650.133 2.83853 651.954 3.2076C653.776 3.53053 655.341 4.36092 656.648 5.69878L723.203 74.2754V4.38399H741.418V95.9349Z"/>
<path d="M781 103.616H762.785V4.38399H781V103.616Z"/>
</mask>
<path d="M111.462 94.5509C111.462 95.8426 111.229 97.0421 110.762 98.1493C110.295 99.2564 109.641 100.225 108.8 101.056C108.006 101.84 107.049 102.463 105.928 102.924C104.807 103.385 103.592 103.616 102.285 103.616H36.5709C34.8895 103.616 33.0681 103.431 31.1065 103.062C29.1916 102.647 27.2766 102.024 25.3617 101.194C23.4936 100.364 21.6954 99.3026 19.9673 98.0109C18.2393 96.673 16.698 95.0814 15.3436 93.2361C14.0358 91.3446 12.985 89.1764 12.191 86.7313C11.397 84.2402 11 81.4491 11 78.3582V29.6418C11 27.981 11.1868 26.2049 11.5605 24.3134C11.9808 22.3758 12.6113 20.4844 13.452 18.6391C14.2927 16.7476 15.3903 14.9484 16.7447 13.2415C18.0991 11.5346 19.7105 10.0353 21.5787 8.74356C23.4936 7.4057 25.6887 6.34464 28.164 5.56038C30.6394 4.77612 33.4417 4.38399 36.5709 4.38399H110.622V22.3758H36.5709C34.189 22.3758 32.3675 22.9986 31.1065 24.2442C29.8454 25.4898 29.2149 27.3351 29.2149 29.7802V78.3582C29.2149 80.6649 29.8454 82.464 31.1065 83.7558C32.4142 85.0014 34.2357 85.6242 36.5709 85.6242H93.2473V63.0651H44.7676V44.9349H102.285C103.592 44.9349 104.807 45.1886 105.928 45.6961C107.049 46.1574 108.006 46.8033 108.8 47.6336C109.641 48.464 110.295 49.4328 110.762 50.54C111.229 51.6011 111.462 52.7544 111.462 54V94.5509Z" stroke="#99343E" stroke-width="5.6" mask="url(#path-2-outside-1_319_54)"/>
<path d="M148.803 103.616H130.588V4.38399H148.803V103.616Z" stroke="#99343E" stroke-width="5.6" mask="url(#path-2-outside-1_319_54)"/>
<path d="M275.536 63.4803C275.536 69.5237 274.486 75.0828 272.384 80.1574C270.282 85.232 267.363 89.6147 263.627 93.3053C259.89 96.9959 255.453 99.8792 250.316 101.955C245.225 103.985 239.667 105 233.642 105H208.982C202.957 105 197.376 103.985 192.238 101.955C187.101 99.8792 182.664 96.9959 178.927 93.3053C175.191 89.6147 172.249 85.232 170.1 80.1574C167.998 75.0828 166.948 69.5237 166.948 63.4803V44.5197C166.948 38.5224 167.998 32.9864 170.1 27.9118C172.249 22.791 175.191 18.4084 178.927 14.7639C182.664 11.0733 187.101 8.18996 192.238 6.11398C197.376 4.03799 202.957 3 208.982 3H233.642C239.667 3 245.225 4.03799 250.316 6.11398C255.453 8.18996 259.89 11.0733 263.627 14.7639C267.363 18.4084 270.282 22.791 272.384 27.9118C274.486 32.9864 275.536 38.5224 275.536 44.5197V63.4803ZM257.322 44.5197C257.322 40.9674 256.738 37.7612 255.57 34.9009C254.449 31.9946 252.838 29.5265 250.736 27.4966C248.681 25.4206 246.182 23.829 243.24 22.7218C240.344 21.5685 237.145 20.9919 233.642 20.9919H208.982C205.432 20.9919 202.186 21.5685 199.244 22.7218C196.348 23.829 193.85 25.4206 191.748 27.4966C189.646 29.5265 188.011 31.9946 186.844 34.9009C185.723 37.7612 185.162 40.9674 185.162 44.5197V63.4803C185.162 67.0326 185.723 70.2619 186.844 73.1683C188.011 76.0285 189.646 78.4966 191.748 80.5726C193.85 82.6024 196.348 84.194 199.244 85.3474C202.186 86.4545 205.432 87.0081 208.982 87.0081H233.502C237.052 87.0081 240.274 86.4545 243.17 85.3474C246.112 84.194 248.634 82.6024 250.736 80.5726C252.838 78.4966 254.449 76.0285 255.57 73.1683C256.738 70.2619 257.322 67.0326 257.322 63.4803V44.5197Z" stroke="#99343E" stroke-width="5.6" mask="url(#path-2-outside-1_319_54)"/>
<path d="M391.972 4.38399L344.403 100.087C343.655 101.563 342.535 102.739 341.04 103.616C339.592 104.539 337.981 105 336.206 105C334.478 105 332.867 104.539 331.372 103.616C329.924 102.739 328.803 101.563 328.009 100.087L280.51 4.38399H300.897L336.206 75.867L371.655 4.38399H391.972Z" stroke="#99343E" stroke-width="5.6" mask="url(#path-2-outside-1_319_54)"/>
<path d="M498.179 103.616H479.964V79.2578H415.931V103.616H397.716V54C397.716 46.7571 398.977 40.0909 401.499 34.0014C404.022 27.9118 407.524 22.6757 412.008 18.2931C416.492 13.9104 421.793 10.4966 427.911 8.05156C434.029 5.60651 440.708 4.38399 447.947 4.38399H489.001C490.262 4.38399 491.453 4.61465 492.574 5.07598C493.695 5.53731 494.676 6.18318 495.516 7.01357C496.357 7.84396 497.011 8.81275 497.478 9.91995C497.945 11.0271 498.179 12.2035 498.179 13.4491V103.616ZM415.931 61.2659H479.964V22.3758H447.947C447.387 22.3758 446.196 22.4681 444.375 22.6526C442.6 22.791 440.521 23.1832 438.139 23.829C435.804 24.4749 433.329 25.4668 430.713 26.8046C428.098 28.1425 425.693 29.9878 423.497 32.3406C421.302 34.6934 419.481 37.6459 418.033 41.1981C416.632 44.7042 415.931 48.9715 415.931 54V61.2659Z" stroke="#99343E" stroke-width="5.6" mask="url(#path-2-outside-1_319_54)"/>
<path d="M619.798 95.9349C619.798 97.2266 619.541 98.426 619.027 99.5332C618.56 100.64 617.907 101.609 617.066 102.44C616.272 103.224 615.314 103.847 614.193 104.308C613.073 104.769 611.882 105 610.621 105C609.5 105 608.355 104.792 607.188 104.377C606.067 103.962 605.063 103.293 604.175 102.37L537.621 33.7246V103.616H519.406V12.0651C519.406 10.2198 519.92 8.55902 520.947 7.08277C522.021 5.56038 523.376 4.43012 525.011 3.69199C526.739 3 528.513 2.83853 530.335 3.2076C532.156 3.53053 533.721 4.36092 535.029 5.69878L601.583 74.2754V4.38399H619.798V95.9349Z" stroke="#99343E" stroke-width="5.6" mask="url(#path-2-outside-1_319_54)"/>
<path d="M741.418 95.9349C741.418 97.2266 741.161 98.426 740.647 99.5332C740.18 100.64 739.526 101.609 738.685 102.44C737.891 103.224 736.934 103.847 735.813 104.308C734.692 104.769 733.501 105 732.24 105C731.119 105 729.975 104.792 728.807 104.377C727.686 103.962 726.682 103.293 725.795 102.37L659.24 33.7246V103.616H641.025V12.0651C641.025 10.2198 641.539 8.55902 642.567 7.08277C643.641 5.56038 644.995 4.43012 646.63 3.69199C648.358 3 650.133 2.83853 651.954 3.2076C653.776 3.53053 655.341 4.36092 656.648 5.69878L723.203 74.2754V4.38399H741.418V95.9349Z" stroke="#99343E" stroke-width="5.6" mask="url(#path-2-outside-1_319_54)"/>
<path d="M781 103.616H762.785V4.38399H781V103.616Z" stroke="#99343E" stroke-width="5.6" mask="url(#path-2-outside-1_319_54)"/>
</g>
<path d="M606.737 194.549C606.737 195.298 606.556 196.005 606.194 196.671C605.865 197.309 605.404 197.878 604.812 198.377C604.252 198.849 603.578 199.223 602.788 199.501C602.031 199.778 601.224 199.917 600.369 199.917C599.48 199.917 598.641 199.778 597.851 199.501C597.094 199.223 596.419 198.849 595.827 198.377C595.267 197.878 594.823 197.309 594.494 196.671C594.165 196.005 594 195.298 594 194.549C594 193.827 594.165 193.148 594.494 192.51C594.823 191.844 595.267 191.275 595.827 190.804C596.419 190.304 597.094 189.916 597.851 189.638C598.641 189.333 599.48 189.181 600.369 189.181C601.224 189.181 602.031 189.333 602.788 189.638C603.578 189.916 604.252 190.304 604.812 190.804C605.404 191.275 605.865 191.844 606.194 192.51C606.556 193.148 606.737 193.827 606.737 194.549Z" fill="#99343E"/>
<path d="M675.607 184.811C675.607 185.838 675.459 186.92 675.162 188.057C674.899 189.195 674.471 190.332 673.879 191.469C673.286 192.579 672.513 193.647 671.558 194.674C670.637 195.7 669.501 196.616 668.152 197.42C666.836 198.197 665.305 198.821 663.561 199.293C661.816 199.764 659.842 200 657.636 200H634.482C633.265 200 631.981 199.889 630.632 199.667C629.282 199.417 627.933 199.043 626.583 198.544C625.267 198.044 624 197.406 622.782 196.629C621.564 195.825 620.478 194.868 619.524 193.758C618.602 192.621 617.862 191.317 617.302 189.847C616.743 188.349 616.463 186.67 616.463 184.811V136H629.299V184.811C629.299 186.143 629.792 187.211 630.78 188.016C631.767 188.792 633.001 189.181 634.482 189.181H657.636C659.249 189.181 660.5 188.778 661.388 187.974C662.31 187.169 662.771 186.115 662.771 184.811V170.164C662.771 168.805 662.294 167.75 661.339 167.001C660.385 166.225 659.15 165.836 657.636 165.836H634.482V155.017H657.636C658.854 155.017 660.138 155.142 661.487 155.391C662.837 155.613 664.17 155.974 665.486 156.473C666.836 156.973 668.119 157.625 669.337 158.429C670.555 159.206 671.624 160.163 672.546 161.3C673.467 162.41 674.208 163.7 674.767 165.17C675.327 166.641 675.607 168.305 675.607 170.164V184.811Z" fill="#99343E"/>
<path d="M699.6 145.779H686.764V136H699.6V145.779ZM699.6 200H686.764V155.017H699.6V200Z" fill="#99343E"/>
<path d="M770 184.811C770 186.67 769.72 188.349 769.161 189.847C768.601 191.317 767.861 192.621 766.939 193.758C766.018 194.868 764.948 195.825 763.73 196.629C762.512 197.406 761.229 198.044 759.879 198.544C758.563 199.043 757.213 199.417 755.831 199.667C754.482 199.889 753.198 200 751.98 200H728.826C727.049 200 725.107 199.736 723.001 199.209C720.894 198.682 718.936 197.822 717.126 196.629C715.349 195.409 713.851 193.841 712.633 191.927C711.449 189.985 710.856 187.613 710.856 184.811V170.164C710.856 167.39 711.449 165.046 712.633 163.131C713.851 161.189 715.349 159.622 717.126 158.429C718.936 157.208 720.894 156.335 723.001 155.808C725.107 155.28 727.049 155.017 728.826 155.017H751.98C755.272 155.017 758.069 155.516 760.373 156.515C762.677 157.514 764.537 158.776 765.952 160.302C767.367 161.8 768.387 163.436 769.013 165.212C769.671 166.987 770 168.638 770 170.164V184.811ZM757.164 170.247C757.164 168.749 756.72 167.639 755.831 166.918C754.942 166.197 753.659 165.836 751.98 165.836H728.925C727.214 165.836 725.914 166.211 725.025 166.96C724.136 167.681 723.692 168.749 723.692 170.164V184.811C723.692 186.226 724.136 187.308 725.025 188.057C725.914 188.806 727.214 189.181 728.925 189.181H751.98C753.725 189.181 755.025 188.806 755.88 188.057C756.736 187.308 757.164 186.226 757.164 184.811V170.247Z" fill="#99343E"/>
</svg>
